<?xml version="1.0" encoding="utf-8"?>
<!-- Generator: Adobe Illustrator 25.4.1, SVG Export Plug-In . SVG Version: 6.00 Build 0)  -->
<svg version="1.1" id="Layer_1" xmlns="http://www.w3.org/2000/svg" xmlns:xlink="http://www.w3.org/1999/xlink" x="0px" y="0px"
	 viewBox="0 0 301 301" style="enable-background:new 0 0 301 301;" xml:space="preserve">
<style type="text/css">
	.st0{fill:#FFFFFF;}
</style>
<path class="st0" d="M46.9,100.1c-9.9,0-17.8,7.9-17.8,17.8v74c0,9.9,7.9,17.8,17.8,17.8s17.8-7.9,17.8-17.8v-74
	C64.7,108,56.8,100.1,46.9,100.1L46.9,100.1z M254.1,100.1c-9.9,0-17.8,7.9-17.8,17.8v74c0,9.9,7.9,17.8,17.8,17.8
	c9.9,0,17.8-7.9,17.8-17.8v-74C271.9,108,264,100.1,254.1,100.1L254.1,100.1z"/>
<path class="st0" d="M120.9,184.6c-9.9,0-17.8,7.9-17.8,17.8v74c0,9.9,7.9,17.8,17.8,17.8s17.8-7.9,17.8-17.8v-74
	C138.7,192.5,130.8,184.6,120.9,184.6L120.9,184.6z M180.1,184.6c-9.9,0-17.8,7.9-17.8,17.8v74c0,9.9,7.9,17.8,17.8,17.8
	c9.9,0,17.8-7.9,17.8-17.8v-74C197.9,192.5,190,184.6,180.1,184.6L180.1,184.6z"/>
<path class="st0" d="M71.3,218c0,10.6,8.5,19.2,19.2,19.2h120.2c10.6,0,19.2-8.5,19.2-19.2V103.2H71.3V218z"/>
<path class="st0" d="M189.4,33.2l12.5-22.6c0.7-1.3,0.3-2.7-1-3.4c-0.4-0.2-0.8-0.3-1.2-0.3c-0.9,0-1.8,0.4-2.2,1.3L184.8,31
	c-10.4-4.6-22-7.2-34.3-7.2s-23.9,2.6-34.3,7.2L103.5,8.2c-0.5-0.9-1.3-1.3-2.2-1.3c-0.4,0-0.8,0.1-1.2,0.3c-1.3,0.7-1.7,2.2-1,3.4
	l12.5,22.6C87.6,45.8,71.3,69.6,71.3,96.9h158.5C229.7,69.6,213.4,45.8,189.4,33.2z M113.5,66.2c-6.4,0-6.4-10,0-10
	C119.9,56.2,119.9,66.2,113.5,66.2z M182.6,66.6c-6.4,0-6.4-10,0-10C189,56.6,189,66.6,182.6,66.6z"/>
</svg>
