<svg xmlns="http://www.w3.org/2000/svg" viewBox="0 0 129.93 114.69" fill="#fe5472" xmlns:v="https://vecta.io/nano"><circle cx="2.99" cy="2.89" r="2.89"/><circle cx="27.83" cy="2.89" r="2.89"/><circle cx="52.67" cy="2.89" r="2.89"/><circle cx="77.51" cy="2.89" r="2.89"/><circle cx="102.36" cy="2.89" r="2.89"/><circle cx="127.19" cy="2.89" r="2.89"/><circle cx="2.89" cy="24.67" r="2.89"/><circle cx="27.74" cy="24.67" r="2.89"/><circle cx="52.58" cy="24.67" r="2.89"/><circle cx="77.42" cy="24.67" r="2.89"/><circle cx="102.25" cy="24.67" r="2.89"/><circle cx="127.1" cy="24.67" r="2.89"/><circle cx="2.89" cy="46.46" r="2.89"/><circle cx="27.74" cy="46.46" r="2.89"/><circle cx="52.58" cy="46.46" r="2.89"/><circle cx="77.42" cy="46.46" r="2.89"/><circle cx="102.25" cy="46.46" r="2.89"/><circle cx="127.1" cy="46.46" r="2.89"/><circle cx="2.89" cy="68.24" r="2.89"/><circle cx="27.74" cy="68.24" r="2.89"/><circle cx="52.58" cy="68.24" r="2.89"/><circle cx="77.42" cy="68.24" r="2.89"/><circle cx="102.25" cy="68.24" r="2.89"/><circle cx="127.1" cy="68.24" r="2.89"/><circle cx="2.89" cy="90.01" r="2.89"/><circle cx="27.74" cy="90.01" r="2.89"/><circle cx="52.58" cy="90.01" r="2.89"/><circle cx="77.42" cy="90.01" r="2.89"/><circle cx="102.25" cy="90.01" r="2.89"/><circle cx="127.1" cy="90.01" r="2.89"/><circle cx="2.84" cy="111.79" r="2.89"/><circle cx="27.68" cy="111.79" r="2.89"/><circle cx="52.52" cy="111.79" r="2.89"/><circle cx="77.36" cy="111.79" r="2.89"/><circle cx="102.2" cy="111.79" r="2.89"/><circle cx="127.04" cy="111.79" r="2.89"/></svg>