<svg xmlns="http://www.w3.org/2000/svg" viewBox="0 0 256 256" ><path d="M251.172 116.594L139.399 4.828a16.49 16.49 0 0 0-23.314 0l-23.21 23.21 29.443 29.443c6.842-2.312 14.688-.761 20.142 4.694 5.48 5.489 7.019 13.401 4.651 20.266l28.375 28.375c6.865-2.365 14.786-.834 20.269 4.657 7.663 7.66 7.663 20.075 0 27.74a19.62 19.62 0 0 1-27.749 0c-5.764-5.769-7.188-14.235-4.269-21.336l-26.462-26.462-.003 69.638a19.82 19.82 0 0 1 5.188 3.711c7.663 7.66 7.663 20.075 0 27.746-7.665 7.663-20.086 7.663-27.74 0-7.663-7.671-7.663-20.086 0-27.746 1.893-1.89 4.084-3.32 6.421-4.281V94.196c-2.337-.955-4.525-2.376-6.421-4.281-5.806-5.798-7.202-14.317-4.227-21.446L81.471 39.442l-76.64 76.634c-6.441 6.444-6.441 16.884 0 23.322l111.773 111.768c6.435 6.438 16.873 6.438 23.316 0l111.251-111.248c6.438-6.441 6.438-16.887 0-23.325" fill="#E94E31" /></svg>