<svg xmlns="http://www.w3.org/2000/svg" x="0px" y="0px" viewBox="0 0 100 100" ><g><path fill="#F1E038" d="M0,1.6v96.8c0,0.9,0.7,1.6,1.6,1.6h96.8c0.9,0,1.6-0.7,1.6-1.6V1.6c0-0.9-0.7-1.6-1.6-1.6H1.6 C0.7,0,0,0.7,0,1.6z M54.6,78.9c-0.1,6.6-3.3,11-9,12.7c-7.1,2.1-14.4-0.2-18.2-5.8c-0.2-0.3-0.4-0.6-0.6-0.9 c-0.4-0.8-0.2-1.7,0.6-2.2c1.7-1.1,3.4-2.1,5.2-3.1c0.7-0.4,1.7-0.2,2.1,0.5c0.3,0.4,0.5,0.8,0.8,1.1c1.6,2.2,4,3,6.4,2.2 c2.5-0.8,2.9-2.9,2.9-5.1c0-9.8,0-19.7,0-29.5v-1.2c0-0.9,0.7-1.6,1.6-1.6h8c0.1,0.5,0.2,0.8,0.2,1.2 C54.6,57.7,54.7,68.3,54.6,78.9z M92.2,81.3c-0.9,5.8-4.6,9-10.1,10.4c-5.2,1.3-10.4,0.9-15.3-1.5c-2.8-1.4-5.1-3.4-6.7-6.2 c-0.4-0.8-0.2-1.7,0.6-2.2c1.8-1,3.5-2,5.2-3c0.7-0.4,1.6-0.2,2.1,0.4c0.3,0.4,0.6,0.8,0.9,1.1c2.6,3.1,7,4.4,10.5,2.9 c1.3-0.6,2.6-2.1,3.1-3.4c0.7-1.7-0.4-3.3-2-4.2c-2-1.2-4.2-2.1-6.3-3.1c-2-1-4.1-1.9-6-3.2c-5.1-3.4-7.2-9.3-5.5-15.1 c1.5-5.2,6.4-8.6,12.5-8.8c5.7-0.2,10.5,1.3,13.7,6.4c0,0,0,0,0,0c0.5,0.7,0.2,1.7-0.5,2.1c-1.7,1.1-3.3,2.1-4.7,3 c-0.6,0.4-1.3,0.3-1.9-0.1c-1.3-1.1-2.4-2.1-3.7-2.6c-2.4-1.1-5-0.1-5.9,1.9c-1,2.1-0.2,4.3,2.3,5.7c1.6,0.9,3.3,1.5,4.9,2.3 c2.2,1.1,4.5,2.1,6.6,3.4C91.2,70.6,93.1,75.4,92.2,81.3z"/><path d="M92.2,81.3c-0.9,5.8-4.6,9-10.1,10.4c-5.2,1.3-10.4,0.9-15.3-1.5c-3.3-1.6-5.8-4.1-7.5-7.7c2.7-1.6,5.1-3,7.7-4.5 c0.7,0.8,1.2,1.5,1.8,2.2c2.6,3.1,7,4.4,10.5,2.9c1.3-0.6,2.6-2.1,3.1-3.4c0.7-1.7-0.4-3.3-2-4.2c-2-1.2-4.2-2.1-6.3-3.1 c-2-1-4.1-1.9-6-3.2c-5.1-3.4-7.2-9.3-5.5-15.1c1.5-5.2,6.4-8.6,12.5-8.8c5.7-0.2,10.5,1.3,13.7,6.4c0.2,0.4,0.4,0.8,0.7,1.4 c-2.4,1.6-4.8,3.1-6.9,4.4c-1.7-1.3-3-2.6-4.6-3.4c-2.4-1.1-5-0.1-5.9,1.9c-1,2.1-0.2,4.3,2.3,5.7c1.6,0.9,3.3,1.5,4.9,2.3 c2.2,1.1,4.5,2.1,6.6,3.4C91.2,70.6,93.1,75.4,92.2,81.3z"/><path d="M54.6,78.9c-0.1,6.6-3.3,11-9,12.7c-7.1,2.1-14.4-0.2-18.2-5.8c-0.5-0.7-0.8-1.4-1.3-2.3c2.7-1.6,5.1-3.1,7.8-4.7 c0.6,0.9,1.1,1.6,1.6,2.3c1.6,2.2,4,3,6.4,2.2c2.5-0.8,2.9-2.9,2.9-5.1c0-9.8,0-19.7,0-29.5v-2.8h9.6c0.1,0.5,0.2,0.8,0.2,1.2 C54.6,57.7,54.7,68.3,54.6,78.9z"/></g></svg>