<?xml version="1.0" encoding="utf-8"?>
<!-- Generator: Adobe Illustrator 25.4.1, SVG Export Plug-In . SVG Version: 6.00 Build 0)  -->
<svg version="1.1" id="Icons" xmlns="http://www.w3.org/2000/svg" xmlns:xlink="http://www.w3.org/1999/xlink" x="0px" y="0px"
	 viewBox="0 0 32 32" style="enable-background:new 0 0 32 32;" xml:space="preserve">
<style type="text/css">
	.st0{fill:none;stroke:#FFFFFF;stroke-width:2;stroke-linecap:round;stroke-linejoin:round;stroke-miterlimit:10;}
</style>
<path class="st0" d="M2.4,17.1C2.4,9.6,8.5,3.5,16,3.5s13.6,6.1,13.6,13.6"/>
<rect x="1.3" y="15.9" class="st0" width="2.3" height="2.3"/>
<rect x="28.5" y="15.9" class="st0" width="2.3" height="2.3"/>
<rect x="14.9" y="2.3" class="st0" width="2.3" height="2.3"/>
<circle class="st0" cx="2.4" cy="3.5" r="1.1"/>
<circle class="st0" cx="29.6" cy="3.5" r="1.1"/>
<line class="st0" x1="2.4" y1="3.5" x2="29.6" y2="3.5"/>
<path class="st0" d="M16,9.1L9.2,19.6c1.8,2,3.2,4.6,3.9,7.7H16h2.9c0.7-3.1,2-5.8,3.9-7.7L16,9.1z"/>
<line class="st0" x1="16" y1="17.1" x2="16" y2="9.5"/>
<circle class="st0" cx="16" cy="19.3" r="2.3"/>
<rect x="12.6" y="27.3" class="st0" width="6.8" height="3.4"/>
</svg>
