<svg xmlns="http://www.w3.org/2000/svg" viewBox="0 0 256 256"><style><![CDATA[.B{fill:#ff6c37}.C{fill:#fff}]]></style><path d="M254.953 144.253c8.958-70.131-40.569-134.248-110.572-143.206S10.005 41.616 1.047 111.619s40.569 134.248 110.572 143.334c70.131 8.958 134.248-40.569 143.334-110.7z" class="B"/><path d="M174.199 82.184l-54.006 54.006-15.229-15.229c53.11-53.11 58.357-48.503 69.236-38.777h0z" class="C"/><path d="M120.193 137.47a1.16 1.16 0 0 1-.896-.384l-15.357-15.229c-.512-.512-.512-1.28 0-1.792 54.006-54.006 59.637-48.887 71.027-38.649a1.16 1.16 0 0 1 .384.896 1.16 1.16 0 0 1-.384.896l-54.006 53.878c-.128.256-.512.384-.768.384zm-13.438-16.509l13.438 13.438 52.087-52.087c-9.47-8.446-15.869-11.006-65.524 38.649h0z" class="B"/><path d="M135.678 151.676l-14.717-14.717 54.006-54.006c14.461 14.589-7.167 38.265-39.289 68.724z" class="C"/><path d="M135.678 152.956a1.16 1.16 0 0 1-.896-.384l-14.717-14.717c-.256-.256-.256-.512-.256-.896a1.16 1.16 0 0 1 .384-.896l54.006-54.006c.512-.512 1.28-.512 1.792 0 3.327 3.071 5.119 7.423 4.991 11.902-.256 14.205-16.381 32.25-44.28 58.613-.384.256-.768.384-1.024.384h0zm-12.926-15.997l12.926 12.926c21.5-20.476 42.36-41.465 42.488-55.926.128-3.327-1.152-6.655-3.327-9.214l-52.087 52.215z" class="B"/><path d="M105.22 121.345l10.878 10.878c.256.256.256.512 0 .768-.128.128-.128.128-.256.128l-22.524 4.863c-1.152.128-2.176-.64-2.432-1.792-.128-.64.128-1.28.512-1.664l13.054-13.054c.256-.256.64-.384.768-.128z" class="C"/><path d="M92.934 139.262c-1.92 0-3.327-1.536-3.327-3.455 0-.896.384-1.792 1.024-2.432l13.054-13.054c.768-.64 1.792-.64 2.56 0l10.878 10.878c.768.64.768 1.792 0 2.56-.256.256-.512.384-.896.512l-22.524 4.863c-.256 0-.512.128-.768.128h0zm11.902-16.509l-12.542 12.542c-.256.256-.384.64-.128 1.024.128.384.512.512.896.384l21.116-4.607-9.342-9.342z" class="B"/><path d="M202.738 52.238c-8.191-7.935-21.372-7.679-29.307.64s-7.679 21.372.64 29.307c6.783 6.527 17.021 7.679 25.083 2.815L184.566 70.41l18.173-18.173z" class="C"/><path d="M188.405 89.223c-12.158 0-22.012-9.854-22.012-22.012s9.854-22.012 22.012-22.012a21.93 21.93 0 0 1 15.229 6.143 1.16 1.16 0 0 1 .384.896 1.16 1.16 0 0 1-.384.896L186.357 70.41l13.566 13.566c.512.512.512 1.28 0 1.792l-.256.256c-3.327 2.048-7.295 3.199-11.262 3.199zm0-41.337c-10.75 0-19.452 8.702-19.325 19.452 0 10.75 8.702 19.452 19.452 19.325 2.943 0 5.887-.64 8.574-2.048l-13.438-13.31a1.16 1.16 0 0 1-.384-.896 1.16 1.16 0 0 1 .384-.896l17.149-17.149c-3.455-2.943-7.807-4.479-12.414-4.479h0z" class="B"/><path d="M203.122 52.622l-.256-.256-18.301 18.045 14.461 14.461c1.408-.896 2.815-1.92 3.967-3.071a20.51 20.51 0 0 0 .128-29.179h0z" class="C"/><path d="M199.155 86.28a1.16 1.16 0 0 1-.896-.384L183.67 71.306a1.16 1.16 0 0 1-.384-.896 1.16 1.16 0 0 1 .384-.896l18.173-18.173c.512-.512 1.28-.512 1.792 0l.384.256c8.574 8.574 8.574 22.396.128 31.098-1.28 1.28-2.688 2.432-4.223 3.327-.384.128-.64.256-.768.256h0zM186.357 70.41l12.926 12.926c1.024-.64 2.048-1.536 2.815-2.304 7.295-7.295 7.679-19.197.64-26.875L186.357 70.41z" class="B"/><path d="M176.375 84.488a7.88 7.88 0 0 0-11.134 0l-48.247 48.247 8.063 8.063 51.063-44.792c3.327-2.815 3.583-7.807.768-11.134-.256-.128-.384-.256-.512-.384h0z" class="C"/><path d="M124.928 142.078a1.16 1.16 0 0 1-.896-.384l-8.063-8.063c-.512-.512-.512-1.28 0-1.792l48.247-48.247c3.583-3.583 9.342-3.583 12.926 0s3.583 9.342 0 12.926l-.384.384-51.063 44.792c-.128.256-.384.384-.768.384h0zm-6.143-9.342l6.271 6.271 50.167-44.024c2.815-2.304 3.071-6.527.768-9.342s-6.527-3.071-9.342-.768c-.128.128-.256.256-.512.384l-47.351 47.479z" class="B"/><path d="M80.008 187.637c-.512.256-.768.768-.64 1.28l2.176 9.214c.512 1.28-.256 2.815-1.664 3.199-1.024.384-2.176 0-2.815-.768l-14.077-13.949 45.944-45.944 15.869.256 10.75 10.75c-2.56 2.176-18.045 17.149-55.542 35.962h0z" class="C"/><path d="M78.985 202.611c-1.024 0-2.048-.384-2.688-1.152l-13.949-13.949a1.16 1.16 0 0 1-.384-.896 1.16 1.16 0 0 1 .384-.896l45.944-45.944c.256-.256.64-.384.896-.384l15.869.256a1.16 1.16 0 0 1 .896.384l10.75 10.75c.256.256.384.64.384 1.024s-.128.64-.512.896l-.896.768c-13.566 11.902-31.994 23.804-54.902 35.194l2.176 9.086c.384 1.664-.384 3.455-1.92 4.351-.768.384-1.408.512-2.048.512zm-14.077-15.997l13.182 13.054c.384.64 1.152.896 1.792.512s.896-1.152.512-1.792l-2.176-9.214a2.33 2.33 0 0 1 1.28-2.688c22.652-11.39 40.953-23.164 54.39-34.81l-9.47-9.47-14.717-.256-44.792 44.664z" class="B"/><path d="M52.109 197.62l11.006-11.006 16.381 16.381-26.107-1.792c-1.152-.128-1.92-1.152-1.792-2.304 0-.512.128-1.024.512-1.28h0z" class="C"/><path d="M79.497 204.146l-26.235-1.792c-1.92-.128-3.199-1.792-3.071-3.711.128-.768.384-1.536 1.024-2.048L62.22 185.59c.512-.512 1.28-.512 1.792 0l16.381 16.381c.384.384.512.896.256 1.408s-.64.768-1.152.768h0zm-16.381-15.741l-10.11 10.11c-.384.256-.384.896 0 1.152.128.128.256.256.512.256l22.652 1.536-13.054-13.054zm41.336-41.848c-.768 0-1.28-.64-1.28-1.28a1.16 1.16 0 0 1 .384-.896l12.414-12.414c.512-.512 1.28-.512 1.792 0l8.063 8.063c.384.384.512.768.384 1.28-.128.384-.512.768-1.024.896l-20.476 4.351h-.256 0zm12.414-11.902l-8.446 8.446 13.822-2.943-5.375-5.503z" class="B"/><path d="M124.8 140.926l-14.077 3.071c-1.024.256-2.048-.384-2.304-1.408-.128-.64 0-1.28.512-1.792l7.807-7.807 8.063 7.935z" class="C"/><path d="M110.467 145.277c-1.792 0-3.199-1.408-3.199-3.199 0-.896.384-1.664.896-2.304l7.807-7.807c.512-.512 1.28-.512 1.792 0l8.063 8.063c.384.384.512.768.384 1.28-.128.384-.512.768-1.024.896l-14.077 3.071h-.64 0zm6.399-10.622l-6.911 6.911a.6.6 0 0 0-.128.768c.128.256.384.384.768.384l11.774-2.56-5.503-5.503zm86.384-69.748c-.256-.768-1.152-1.152-1.92-.896s-1.152 1.152-.896 1.92c0 .128.128.256.128.384.768 1.536.512 3.455-.512 4.863-.512.64-.384 1.536.128 2.048.64.512 1.536.384 2.048-.256 1.92-2.432 2.304-5.503 1.024-8.063h0z" class="B"/></svg>