<svg xmlns="http://www.w3.org/2000/svg" x="0px" y="0px" viewBox="0 0 500 500" ><path fill="#386C9A" d="M164.92,160.4c33.32,0,66.64,0,99.96,0c5.33,0,5.31,0,5.34-5.47c0.02-3.56,0.14-7.11,0.17-10.67 c0.04-4.73,0.02-4.75-4.65-4.75c-34.86,0-69.73,0.01-104.59,0.02c-2.61,0-5.22-0.11-7.83,0c-2.07,0.09-2.98-0.53-2.98-2.78 c0.07-25.73-0.04-51.46,0.15-77.19c0.04-5.69,3.26-10.33,7-14.42c8.56-9.35,19.71-14.24,31.55-17.67 c22.44-6.52,45.51-7.6,68.68-7.08c20.08,0.45,40,2.24,59.12,9.06c9.48,3.38,18.33,7.86,25.25,15.39c4.52,4.92,7.5,10.49,7.48,17.51 c-0.1,43.87,0.03,87.75-0.14,131.62c-0.08,19.77-9.41,33.06-27.98,39.78c-6.18,2.24-12.78,3.87-19.3,4.48 c-11.19,1.04-22.47,1.28-33.72,1.42c-16.84,0.21-33.68,0.01-50.51,0.04c-44.08,0.07-80.64,31.22-87.37,74.82 c-1.18,7.67-0.82,15.6-1.01,23.41c-0.15,6.04-0.2,12.1,0.02,18.14c0.11,2.94-1.04,3.61-3.69,3.59c-17.79-0.08-35.58,0.05-53.36-0.13 c-5.75-0.06-11.7-0.06-17.2-1.45c-14.76-3.75-24.44-13.93-31.4-26.97c-6.79-12.73-10.22-26.52-11.87-40.72 c-2.94-25.22-2.84-50.4,2.58-75.33c3.26-15,8.64-29.13,19.56-40.43c9.64-9.97,21.31-14.55,35.4-14.38 c31.77,0.4,63.56,0.13,95.34,0.13C164.92,160.38,164.92,160.39,164.92,160.4z M210.29,79.95c0.01-11.25-9-20.23-20.36-20.3 c-11.22-0.07-20.41,9.02-20.47,20.24c-0.06,11.03,9.38,20.47,20.42,20.41C201.13,100.25,210.28,91.12,210.29,79.95z"/><path fill="#F7CE44" d="M349.55,360.43c0,6.31,0,12,0,17.68c0,18.62-0.43,37.25,0.16,55.84c0.36,11.5-4.81,19.47-13.22,26.04 c-10.23,7.99-22.23,12.04-34.7,14.78c-23.34,5.13-46.98,5.62-70.73,4.35c-15.68-0.84-31.13-2.99-46.06-8.01 c-10.79-3.63-20.8-8.65-28.33-17.58c-4.27-5.07-6.44-10.72-6.41-17.56c0.18-35.93-0.02-71.85,0.11-107.78 c0.12-32.77,22.23-60.29,53.54-66.25c7.61-1.45,15.56-1.5,23.36-1.59c22.04-0.25,44.1,0.21,66.13-0.4 c15.14-0.41,29.84-3.73,43.46-10.8c22.22-11.55,33.05-30.14,33.46-54.9c0.26-15.88,0.05-31.78,0.05-47.67c0-1.87,0-3.74,0-5.9 c1.65-0.1,2.91-0.23,4.18-0.24c19.8-0.09,39.6-0.28,59.4-0.21c15.09,0.06,26.77,7.02,35.87,18.69 c8.82,11.32,13.43,24.51,15.99,38.36c5.62,30.4,5.7,60.83-1.3,91.04c-3.61,15.58-9.8,30.01-22.33,40.78 c-8.93,7.68-19.3,10.94-31.16,10.64c-16.12-0.41-32.25-0.18-48.37-0.18c-49.33-0.01-98.65-0.01-147.98,0 c-5.22,0-5.23,0.01-5.16,5.34c0.05,4.03,0.26,8.07,0.13,12.09c-0.09,2.65,0.82,3.48,3.46,3.46c13.99-0.1,27.98-0.03,41.97-0.03 c23.24,0,46.48-0.01,69.72-0.02C346.17,360.43,347.57,360.43,349.55,360.43z M289.6,420.12c-0.02,11.1,9.25,20.41,20.37,20.44 c10.98,0.04,20.41-9.39,20.45-20.46c0.05-11.12-9.18-20.27-20.44-20.28C298.69,399.82,289.62,408.85,289.6,420.12z"/></svg>