<?xml version="1.0" encoding="utf-8"?>
<!-- Generator: Adobe Illustrator 25.4.1, SVG Export Plug-In . SVG Version: 6.00 Build 0)  -->
<svg version="1.1" id="Layer_1" xmlns="http://www.w3.org/2000/svg" xmlns:xlink="http://www.w3.org/1999/xlink" x="0px" y="0px"
	 viewBox="0 0 512 512" style="enable-background:new 0 0 512 512;" xml:space="preserve">
<style type="text/css">
	.st0{fill:#FFFFFF;}
</style>
<g>
	<g>
		<path class="st0" d="M437.5,239.9c1-7.3,2.1-13.5,2.1-20.8c0-70.6-57.2-127.7-128-127.7c-37.5,0-71.8,15.6-95.7,42.6
			c-13.5-7.3-29.1-11.4-44.7-11.4c-48.9,0-89.5,35.3-96.8,83.1C36,224.3,11,263.8,11,307.4c0,62.3,51,113.2,113.4,113.2h281.9
			c52,0,93.6-41.5,94.7-92.4C501,287.7,475,252.4,437.5,239.9L437.5,239.9z M406.3,399.8H124.4c-51,0-92.6-41.5-92.6-92.4
			c0-37.4,21.8-70.6,56.2-85.1c3.1-1,6.2-4.2,6.2-8.3c3.1-40.5,35.4-70.6,75.9-70.6c15.6,0,29.1,4.2,43.7,10.4
			c4.2,3.1,10.4,2.1,13.5-2.1c19.8-26,51-41.5,84.3-41.5c59.3,0,107.2,47.8,107.2,106.9c0,8.3-1,17.6-3.1,26
			c-2.8,9.2,4.2,12.5,7.3,13.5c33.3,7.3,56.2,36.3,56.2,70.6C479.2,367.6,446.9,399.8,406.3,399.8z"/>
		<path class="st0" d="M161.1,232.3c11.5,0,20.9,9.3,20.9,20.8c0,3.9,3.1,7,7,7s7-3.1,7-7c0-19.2-15.7-34.8-34.9-34.8
			c-19.3,0-34.9,15.6-34.9,34.8s15.7,34.8,34.9,34.8c11.5,0,20.9,9.3,20.9,20.8s-9.4,20.8-20.9,20.8s-20.9-9.3-20.9-20.8
			c0-3.9-3.1-7-7-7s-7,3.1-7,7c0,19.2,15.7,34.8,34.9,34.8c19.3,0,34.9-15.6,34.9-34.8S180.3,274,161.1,274
			c-11.5,0-20.9-9.3-20.9-20.8S149.6,232.3,161.1,232.3L161.1,232.3z"/>
		<path class="st0" d="M276,232.3c3.9,0,7-3.1,7-7s-3.1-7-7-7h-56.6c-3.9,0-7,3.1-7,7v111.4c0,3.9,3.1,7,7,7H276c3.9,0,7-3.1,7-7
			s-3.1-7-7-7h-49.6V288H276c3.9,0,7-3.1,7-7s-3.1-7-7-7h-49.6v-41.7H276z"/>
		<path class="st0" d="M338.7,218.3c-13,0-25.1,6.8-34.1,19.2c-8.4,11.7-13.1,27.1-13.1,43.5s4.6,31.8,13.1,43.5
			c8.9,12.4,21,19.2,34.1,19.2s25.1-6.8,34.1-19.2c8.4-11.7,13.1-27.1,13.1-43.5s-4.6-31.8-13.1-43.5
			C363.8,225.1,351.7,218.3,338.7,218.3z M338.7,329.6c-18.3,0-33.1-21.8-33.1-48.7c0-26.8,14.9-48.7,33.1-48.7
			c18.3,0,33.1,21.8,33.1,48.7S357,329.6,338.7,329.6z"/>
	</g>
</g>
</svg>
