<?xml version="1.0" encoding="utf-8"?>
<!-- Generator: Adobe Illustrator 25.4.1, SVG Export Plug-In . SVG Version: 6.00 Build 0)  -->
<svg version="1.1" id="Layer_1" xmlns="http://www.w3.org/2000/svg" xmlns:xlink="http://www.w3.org/1999/xlink" x="0px" y="0px"
	 viewBox="0 0 150 150" style="enable-background:new 0 0 150 150;" xml:space="preserve">
<style type="text/css">
	.st0{fill:#FFFFFF;}
</style>
<g>
	<path class="st0" d="M76.5,69.2l2,4.8l-5.8,2.4c-1.6,0.6-2.3,2.5-1.7,4l-2-4.8c-0.6-1.6,0.1-3.4,1.7-4L76.5,69.2z"/>
</g>
<g>
	<g>
		<path class="st0" d="M54,87.9l2.6,6.4L35,103.3c-1.6,0.6-3.3-0.1-4-1.7l-2.6-6.4c0.6,1.6,2.4,2.3,4,1.7L54,87.9z"/>
	</g>
	<g>
		<path class="st0" d="M41.8,58.1l2.6,6.4l-21.6,9.1c-1.6,0.6-2.3,2.5-1.7,4l-2.6-6.4c-0.6-1.6,0.1-3.4,1.7-4L41.8,58.1z"/>
	</g>
	<g>
		<path class="st0" d="M28.5,95.7l2,4.8l-5.8,2.4c-1.6,0.6-3.3-0.1-4-1.7l-2-4.8c0.6,1.6,2.4,2.3,4,1.7L28.5,95.7z"/>
	</g>
	<g>
		<path class="st0" d="M129,98.9l-72.4-4.6l-3.8-9.4l64.8,3.6C121.9,94.3,125.9,98,129,98.9z"/>
	</g>
	<g>
		<path class="st0" d="M89.8,2.8c-1.6,2.8-1.9,8.3-0.9,15.5L45.6,67.4L41.7,58L89.8,2.8z"/>
	</g>
	<g>
		<path class="st0" d="M54,104.1c0,0.1,0,0.1,0.1,0.2L38.1,111l-3.2-7.7l18.7-7.9C55.2,99.2,52.4,100.3,54,104.1z"/>
	</g>
	<g>
		<path class="st0" d="M71.9,140l-15.5,6.5c-1.7,0.7-3.8-0.1-4.5-1.9l-3.2-7.7c0.7,1.8,2.8,2.6,4.5,1.9l12.7-5.4
			c0,0.1,0,0.1,0.1,0.2C67.6,137.5,70.4,136.3,71.9,140z"/>
	</g>
</g>
<path class="st0" d="M126.1,45.1C115.8,19.9,100.6-3.6,91.4,0.2C89.9,0.9,93.7-3.3,41,57.4l-21.2,8.9c-2.2,0.9-3.5,3.4-2.9,5.9
	l-4,1.7c-2.6,1.1-3.7,4-2.7,6.6l9.2,22.5c1,2.6,3.9,3.8,6.5,2.8l4.1-1.7c0.9,1.6,2.5,2.5,4.3,2.5l0,0l16.3,39.9c1.2,2.8,4.3,4.1,7,3
	l15.5-6.5c0.5-0.2,0.9-0.6,1.1-1.1s0.2-1,0-1.5c-2.1-5.2-7.3-3.6-5.9-9.3c1.1-4.2-0.2-7.5-3.9-9.7c-2.2-1.3-2.8-2.8-2.1-5.2
	c1.1-4.1-0.2-7.5-3.9-9.7c-2.1-1.3-2.8-2.8-2.1-5.2c0.2-0.9,0.5-2.1,0.3-3.6l0.9-0.3c73.6,4.8,73,5.4,75.5,4.3
	C142,97.8,136.4,70.3,126.1,45.1z M24.4,102.2c-0.6,0.2-1.2,0-1.5-0.6l-9.2-22.5c-0.2-0.5,0-1.2,0.6-1.5l4-1.7l10,24.5L24.4,102.2z
	 M33.2,102L20.7,71.5c-0.2-0.6,0-1.2,0.6-1.5l19.8-8.3l13.3,32.6l-19.8,8.3l0,0h0C34.1,102.8,33.4,102.6,33.2,102z M52.6,99.3
	c0,0.3-0.1,0.6-0.2,1c-1.1,4.1,0.2,7.4,3.9,9.6c2.1,1.3,2.8,2.8,2.1,5.2c-1.1,4.1,0.2,7.5,3.9,9.7c2.2,1.3,2.8,2.8,2.1,5.2
	c-1.1,4.1,0.2,7.4,3.9,9.6c0.3,0.2,0.6,0.3,0.9,0.5l-13.3,5.6c-0.8,0.3-1.7,0-2-0.8L38,105.4C38.4,105.3,52.8,99.2,52.6,99.3z
	 M58.3,93.5l-13.8-34l42.3-48.7c-0.4,13.4,6.2,33.5,11.4,46c5.1,12.6,14.5,31.5,24,40.7L58.3,93.5z M96.6,41.4l0.9-0.3
	c7.4-3.1,16,0.5,19.1,8c3.1,7.5-0.5,16.3-7.9,19.4l-0.9,0.3c-2.1-4.2-4.2-8.8-6.1-13.5C99.8,50.6,98.1,46,96.6,41.4z M131.3,98
	c-5.8,2.5-18.7-20-21.7-25.7l0.6-0.2c9.4-3.9,13.9-15,10-24.5C116.3,38,105.4,33.4,96,37.4l-0.6,0.2c-1.8-6.2-8.4-31.3-2.5-33.8
	c7.7-3.3,24.7,30.7,29.6,42.7C134.4,75.8,135.6,96.2,131.3,98z"/>
<g>
	<g>
		<path class="st0" d="M87.5,111.3l-9.6-3.6c-1-0.4-1.5-1.5-1.1-2.6c0.4-1,1.5-1.5,2.5-1.1l9.6,3.6c1,0.4,1.5,1.5,1.1,2.6
			C89.6,111.2,88.4,111.7,87.5,111.3z"/>
	</g>
	<g>
		<path class="st0" d="M81.4,91.1c-1.1,0-1.9-0.8-1.9-1.9s0.8-2,1.9-2l10.3-0.2h0c1.1,0,1.9,0.8,1.9,1.9c0,1.1-0.8,2-1.9,2
			C91.5,90.9,80.7,91.2,81.4,91.1z"/>
	</g>
	<g>
		<path class="st0" d="M76.2,73.9c-0.4-1,0-2.2,1.1-2.6l9.5-4c1-0.4,2.1,0,2.5,1.1c0.4,1,0,2.2-1.1,2.6l-9.5,4
			C77.8,75.4,76.6,74.9,76.2,73.9z"/>
	</g>
	<g>
		<path class="st0" d="M67.8,60.8c-0.7-0.8-0.7-2,0-2.8l7.4-7.2c0.8-0.7,2-0.7,2.8,0c0.7,0.8,0.7,2,0,2.8l-7.5,7.2
			C69.7,61.6,68.5,61.6,67.8,60.8z"/>
	</g>
	<g>
		<path class="st0" d="M54.8,51.4c-1-0.4-1.4-1.6-1-2.6l4.2-9.5c0.4-1,1.6-1.4,2.6-1s1.4,1.6,1,2.6l-4.2,9.5
			C56.9,51.5,55.8,51.9,54.8,51.4z"/>
	</g>
</g>
</svg>
