<?xml version="1.0" encoding="utf-8"?>
<!-- Generator: Adobe Illustrator 25.4.1, SVG Export Plug-In . SVG Version: 6.00 Build 0)  -->
<svg version="1.1" id="Layer_1" xmlns="http://www.w3.org/2000/svg" xmlns:xlink="http://www.w3.org/1999/xlink" x="0px" y="0px"
	 viewBox="0 0 392.5 392.5" style="enable-background:new 0 0 392.5 392.5;" xml:space="preserve">
<style type="text/css">
	.st0{fill:#FFFFFF;}
</style>
<g>
	<path class="st0" d="M383,135.3C355.6,53.2,279.9,0,196.3,0C112.4,0,37.2,53.1,9.8,134.9c-6,5.9-9.8,14.2-9.8,23.3v76
		c0,8.8,3.6,16.9,9.2,22.8c29.6,82.8,103,135.5,187,135.5c83.8,0,159.7-53.9,186.4-134.9c6-5.9,9.8-14.2,9.8-23.3v-76
		C392.5,149.3,388.9,141.2,383,135.3z M355.7,125.5h-67.6c-2.5-13.4-5.7-26.1-9.4-37.8c15.9-2,31.8-4.6,47.8-7.6
		C338.3,93.5,348.3,108.7,355.7,125.5z M307.1,61.6c-12,2.1-24.1,3.8-36.3,5.2c-6.1-14.3-13.3-26.6-21.3-36.7
		C270.7,36.9,290.1,47.6,307.1,61.6z M207.2,23.8c15.1,5.3,29.3,21.5,40.7,45.3c-13.5,1.1-27.2,1.7-40.7,1.9V23.8z M207.1,92.8
		L207.1,92.8c16.6-0.3,32.9-1.2,49.3-2.7c3.7,10.8,7,22.7,9.5,35.4H207L207.1,92.8L207.1,92.8z M185.3,23.8V71
		c-13.5-0.3-27.2-0.8-40.7-1.9C156,45.3,170.2,29.2,185.3,23.8z M185.3,92.8v32.8h-58.7c2.5-12.7,5.8-24.6,9.5-35.4
		C152.4,91.7,168.9,92.6,185.3,92.8z M142.9,30.1c-8,10-15.1,22.3-21.3,36.7c-12-1.4-24.2-3.1-36.3-5.2
		C102.4,47.6,121.9,36.9,142.9,30.1z M66.1,80.1c15.8,3.1,31.7,5.7,47.8,7.6c-3.8,11.6-6.9,24.2-9.4,37.8H36.8
		C44.3,108.7,54.2,93.5,66.1,80.1z M36.8,267h67.6c2.5,13.4,5.7,26.1,9.4,37.7c-15.9,2-31.8,4.6-47.8,7.6
		C54.2,299.1,44.3,283.8,36.8,267z M85.5,330.9c12-2.1,24.1-3.8,36.3-5.2c6.2,14.3,13.3,26.6,21.3,36.7
		C121.9,355.6,102.4,344.9,85.5,330.9z M185.3,368.7c-15.1-5.3-29.3-21.5-40.7-45.3c13.5-1.1,27.2-1.7,40.7-1.9V368.7z M185.5,299.8
		L185.5,299.8c-16.6,0.3-32.9,1.2-49.3,2.6c-3.7-10.8-7-22.7-9.5-35.4h58.8L185.5,299.8L185.5,299.8L185.5,299.8z M207.2,368.7
		v-47.2c13.5,0.3,27.2,0.8,40.7,1.9C236.5,347.3,222.3,363.4,207.2,368.7z M207.3,299.8V267H266c-2.5,12.7-5.8,24.6-9.5,35.4
		C240.1,300.9,223.6,300,207.3,299.8z M249.6,362.4c8-10,15.1-22.3,21.3-36.7c12,1.4,24.2,3.1,36.3,5.2
		C290.1,344.9,270.7,355.6,249.6,362.4z M326.4,312.4c-15.8-3.1-31.7-5.7-47.8-7.6c3.8-11.6,6.9-24.2,9.4-37.8h67.6
		C348.3,283.8,338.3,299.1,326.4,312.4z M359.8,245.2H32.7c-6,0-10.9-4.8-10.9-10.9v-76c0-6,4.8-10.9,10.9-10.9h327.1
		c6,0,10.9,4.8,10.9,10.9v76h0.1C370.7,240.3,365.9,245.2,359.8,245.2z"/>
	<polygon class="st0" points="120.8,202.1 109.9,168.2 94.8,168.2 83.9,202.1 73,168.2 56.9,168.2 75.9,224.3 92.1,224.3 
		102.4,193.7 112.7,224.3 128.9,224.3 147.9,168.2 131.7,168.2 	"/>
	<polygon class="st0" points="214.6,202.1 203.7,168.3 188.6,168.3 177.7,202.1 166.9,168.3 150.7,168.3 169.7,224.3 185.9,224.3 
		196.3,193.8 206.5,224.3 222.7,224.3 241.7,168.3 225.5,168.3 	"/>
	<polygon class="st0" points="308.5,202.1 297.6,168.2 282.5,168.2 271.6,202.1 260.7,168.2 244.6,168.2 263.6,224.3 279.7,224.3 
		290.1,193.7 300.3,224.3 316.6,224.3 335.6,168.2 319.4,168.2 	"/>
</g>
</svg>
